<svg width="40" height="40" viewBox="0 0 40 40" fill="none" xmlns="http://www.w3.org/2000/svg">
  <circle cx="20" cy="20" r="18" fill="#065143" stroke="#FDFFFC" stroke-width="2"/>
  <path d="M20 6C14.5 6 10 10.5 10 16C10 21.5 20 34 20 34C20 34 30 21.5 30 16C30 10.5 25.5 6 20 6ZM20 19C18.3 19 17 17.7 17 16C17 14.3 18.3 13 20 13C21.7 13 23 14.3 23 16C23 17.7 21.7 19 20 19Z" fill="#FDFFFC"/>
  <path d="M19.5 23C19.5 23 15 17 15 14.5C15 12 17 10 19.5 10C22 10 24 12 24 14.5C24 17 19.5 23 19.5 23Z" fill="#7E5555"/>
  <path d="M22 15.5C22 17.2 20.9 18.5 19.5 18.5C18.1 18.5 17 17.2 17 15.5C17 13.8 18.1 12.5 19.5 12.5C20.9 12.5 22 13.8 22 15.5Z" fill="#FDFFFC"/>
</svg>